<!DOCTYPE svg PUBLIC "-//W3C//DTD SVG 20010904//EN" "http://www.w3.org/TR/2001/REC-SVG-20010904/DTD/svg10.dtd">
<svg version="1.0" xmlns="http://www.w3.org/2000/svg" width="32px" height="32px" viewBox="0 0 320 320" preserveAspectRatio="xMidYMid meet">
<g id="layer101" fill="#e3b973" stroke="none">
 <path d="M0 160 l0 -160 160 0 160 0 0 160 0 160 -160 0 -160 0 0 -160z"/>
 </g>
<g id="layer102" fill="#fafafa" stroke="none">
 <path d="M0 264 l0 -57 23 34 c12 18 38 44 56 56 l34 23 -57 0 -56 0 0 -56z"/>
 <path d="M215 313 c26 -6 62 -40 86 -78 l19 -30 0 58 0 57 -62 -1 c-35 -1 -54 -3 -43 -6z"/>
 <path d="M100 278 c-104 -53 -104 -187 1 -241 114 -58 240 68 182 182 -38 74 -109 97 -183 59z m70 -100 l0 -82 30 29 c46 44 49 20 3 -27 l-41 -41 -35 27 c-35 27 -53 54 -42 64 3 3 19 -7 35 -23 l30 -29 0 82 c0 48 4 82 10 82 6 0 10 -34 10 -82z"/>
 <path d="M310 105 c0 -22 -68 -93 -93 -98 -12 -2 6 -5 41 -6 l62 -1 0 60 c0 33 -2 60 -5 60 -3 0 -5 -7 -5 -15z"/>
 <path d="M0 58 l0 -58 63 0 c60 1 61 1 32 14 -31 14 -64 46 -83 81 -9 17 -11 10 -12 -37z"/>
 </g>

</svg>